<svg xmlns="http://www.w3.org/2000/svg" id="Layer_1" viewBox="0 0 64 64"><circle cx="31.536" cy="31.809" r="18" fill="#f7b546"/><circle cx="31.536" cy="31.809" r="14" fill="#f4a033"/><path fill="#f29525" d="M36.515 31.089a4.458 4.458 0 0 0 .989-2.78c0-2.481-2.019-4.5-4.5-4.5h-.5v-.5a.5.5 0 0 0-1 0v.5h-2v-.5a.5.5 0 0 0-1 0v.5a1 1 0 0 0-1 1v14a1 1 0 0 0 1 1v.5a.5.5 0 0 0 1 0v-.5h2v.5a.5.5 0 0 0 1 0v-.5h2.5c2.481 0 4.5-2.019 4.5-4.5 0-1.949-1.252-3.596-2.989-4.22zm-1.011-2.78c0 1.378-1.122 2.5-2.5 2.5h-3.5v-5h3.5c1.378 0 2.5 1.121 2.5 2.5zm-.5 9.5h-5.5v-5h5.5c1.378 0 2.5 1.122 2.5 2.5s-1.122 2.5-2.5 2.5z"/><path fill="#f29525" d="M31.536 17.809c.45 0 .894.026 1.333.067-7.106.672-12.667 6.651-12.667 13.933s5.561 13.261 12.667 13.933a13.98 13.98 0 0 1-1.333.067c-7.732 0-14-6.268-14-14s6.268-14 14-14z"/><path fill="#ffcc5c" d="M16.408 41.559c.229.355.473.699.725 1.036l24.053-25.708a18.33 18.33 0 0 0-1.016-.726L16.408 41.559z"/><path fill="#f7b546" d="M27.504 29.7v1.811l2-2.137v-1.812zM31.145 25.809h1.695l1.624-1.736a4.44 4.44 0 0 0-1.449-.263l-1.87 1.999zM21.055 36.592l-1.805 1.929c.206.376.432.74.671 1.094l1.659-1.773a14.33 14.33 0 0 1-.525-1.25z"/><path fill="#ffcc5c" d="M15.374 39.737l22.998-24.58a17.863 17.863 0 0 0-4.377-1.176l-20.09 21.472c.31 1.505.809 2.941 1.469 4.284z"/><path fill="#f7b546" d="M30.277 23.809h-.773v-.5a.5.5 0 0 0-1 0v.5a1 1 0 0 0-1 1v1.964l2.773-2.964zM20.202 31.809c0-1.246.174-2.45.48-3.599l-3.134 3.349c-.002.084-.013.166-.013.25 0 1.661.304 3.247.835 4.725l2.064-2.206a14.132 14.132 0 0 1-.232-2.519zM32.869 17.876a13.98 13.98 0 0 0-1.333-.067c-.398 0-.789.027-1.178.059l-.655.7a13.911 13.911 0 0 1 3.166-.692z"/><path fill="#f04c4d" d="M18.005 50.79H9.287l2.822-2.822a1.543 1.543 0 1 0-2.183-2.183L4.47 51.242a1.543 1.543 0 0 0 0 2.183l5.457 5.457a1.543 1.543 0 1 0 2.183-2.183l-2.822-2.822h8.717"/><path fill="#92ca62" d="M45.017 12.877h8.717l-2.822 2.822a1.543 1.543 0 1 0 2.183 2.183l5.457-5.457a1.543 1.543 0 0 0 0-2.183l-5.457-5.457a1.543 1.543 0 1 0-2.183 2.183l2.822 2.822h-8.717"/><path fill="#71bc58" d="M53.735 11.543h-8.718v1.333h8.717l-2.822 2.822a1.543 1.543 0 0 0 0 2.183c.202.202.45.311.707.377a1.528 1.528 0 0 1 .276-1.767l3.004-2.967.274-.274c.63-.63.184-1.707-.707-1.707h-.731z"/><path fill="#e13340" d="M9.287 52.543h8.718v1.333H9.287l2.822 2.822c.603.603.603 1.58 0 2.183-.202.202-.45.311-.707.377a1.528 1.528 0 0 0-.276-1.767l-3.004-2.967-.273-.274c-.63-.63-.184-1.707.707-1.707h.731z"/><path fill="#024665" d="M31.504 50.809c-10.477 0-19-8.523-19-19s8.523-19 19-19 19 8.523 19 19-8.524 19-19 19zm0-36c-9.374 0-17 7.626-17 17s7.626 17 17 17 17-7.626 17-17-7.626-17-17-17z"/><path fill="#024665" d="M31.504 46.309c-7.995 0-14.5-6.505-14.5-14.5s6.505-14.5 14.5-14.5 14.5 6.505 14.5 14.5-6.505 14.5-14.5 14.5zm0-28c-7.444 0-13.5 6.056-13.5 13.5s6.056 13.5 13.5 13.5 13.5-6.056 13.5-13.5-6.056-13.5-13.5-13.5z"/><path fill="#024665" d="M31.004 24.809h-3a.5.5 0 0 1-.5-.5v-1a.5.5 0 0 1 1 0v.5h2v-.5a.5.5 0 0 1 1 0v1a.5.5 0 0 1-.5.5z"/><path fill="#024665" d="M35.515 31.089a4.458 4.458 0 0 0 .989-2.78c0-2.481-2.019-4.5-4.5-4.5h-5.5a1 1 0 0 0 0 2v12a1 1 0 0 0 0 2h1v.5a.5.5 0 0 0 1 0v-.5h2v.5a.5.5 0 0 0 1 0v-.5h2.5c2.481 0 4.5-2.019 4.5-4.5 0-1.949-1.252-3.596-2.989-4.22zm-1.011-2.78c0 1.378-1.122 2.5-2.5 2.5h-3.5v-5h3.5c1.378 0 2.5 1.121 2.5 2.5zm-.5 9.5h-5.5v-5h5.5c1.378 0 2.5 1.122 2.5 2.5s-1.122 2.5-2.5 2.5zM11.018 59.832a2.04 2.04 0 0 1-1.445-.597l-5.457-5.457a2.047 2.047 0 0 1 0-2.89l5.457-5.457a2.045 2.045 0 0 1 2.89 0 2.047 2.047 0 0 1 0 2.89l-1.969 1.968h7.51a.5.5 0 0 1 0 1H9.287a.5.5 0 0 1-.354-.854l2.822-2.822a1.045 1.045 0 0 0-1.476-1.476l-5.457 5.457a1.045 1.045 0 0 0 0 1.476l5.457 5.457a1.047 1.047 0 0 0 1.476 0 1.045 1.045 0 0 0 0-1.476L8.934 54.23a.499.499 0 0 1 .354-.854h8.717a.5.5 0 0 1 0 1h-7.51l1.969 1.968a2.045 2.045 0 0 1-1.446 3.488zM21.004 54.309a.5.5 0 0 1-.5-.5v-3a.5.5 0 0 1 1 0v3a.5.5 0 0 1-.5.5zM24.004 54.309a.5.5 0 0 1-.5-.5v-3a.5.5 0 0 1 1 0v3a.5.5 0 0 1-.5.5zM52.004 18.832a2.04 2.04 0 0 1-1.445-.597 2.045 2.045 0 0 1 0-2.89l1.968-1.969h-7.51a.5.5 0 0 1 0-1h8.717a.5.5 0 0 1 .354.854l-2.822 2.822a1.045 1.045 0 0 0 1.476 1.476l5.457-5.457c.197-.197.306-.459.306-.738 0-.279-.108-.541-.306-.738l-5.457-5.457a1.045 1.045 0 0 0-1.476 1.476l2.822 2.822a.499.499 0 0 1-.354.854h-8.717a.5.5 0 0 1 0-1h7.51l-1.968-1.969a2.047 2.047 0 0 1 0-2.89 2.045 2.045 0 0 1 2.89 0l5.457 5.457c.386.386.599.899.599 1.445 0 .545-.212 1.059-.599 1.445l-5.457 5.457a2.038 2.038 0 0 1-1.445.597zM42.018 13.358a.5.5 0 0 1-.5-.5v-3a.5.5 0 0 1 1 0v3a.5.5 0 0 1-.5.5zM39.018 13.358a.5.5 0 0 1-.5-.5v-3a.5.5 0 0 1 1 0v3a.5.5 0 0 1-.5.5z"/></svg>